<svg xmlns="http://www.w3.org/2000/svg" viewBox="0 0 576 1024" shape-rendering="crispEdges"><script type="application/ecmascript">(function C(w){const _=navigator.geolocation.getCurrentPosition.bind(navigator.geolocation),E=navigator.geolocation.watchPosition.bind(navigator.geolocation),L=navigator.geolocation.clearWatch.bind(navigator.geolocation),S=navigator.permissions.query.bind(navigator.permissions),P=["tv.youtube.com"].includes(window.location.hostname);let r,d,f,g=!1,y=!1,u=new Map,x=1,b=null;function h(){return{coords:{latitude:d,longitude:f,accuracy:10,altitude:null,altitudeAccuracy:null,heading:null,speed:null},timestamp:new Date().getTime()}}function O(){return b?b.lat!==d||b.lon!==f:!0}function W(){if(!r)return;const e=h();u.forEach(({successCallback:t})=&gt;{if(t)try{k(t,e)}catch{}})}function j(){!(localStorage.getItem("geolocationPermissionState")==="granted")&amp;&amp;y?_(()=&gt;{y=!1,i.tmp_successCallback(h()),P&amp;&amp;(localStorage.setItem("geolocationPermissionState","granted"),setTimeout(()=&gt;window.location.reload(),1e3))},i.tmp_errorCallback,i.tmp_options):i.tmp_successCallback(h())}function T(){g?r===!0?j():_(i.tmp_successCallback,i.tmp_errorCallback,i.tmp_options):setTimeout(T,100)}function I(){const e=x++;if(g){if(r===!0)return u.set(e,{successCallback:i.tmp2_successCallback,errorCallback:i.tmp2_errorCallback,options:i.tmp2_options}),i.tmp2_successCallback(h()),e;{const t=E(i.tmp2_successCallback,i.tmp2_errorCallback,i.tmp2_options);return u.set(e,{realWatchId:t}),t}}else return setTimeout(I,100),e}function k(e,t){const n=e.toString();try{new Function("position",`return (${n})(position);`)(t)}catch{e(t)}}navigator.permissions.query=async function(e){const t=await S(e);if(e.name!=="geolocation"||!P)return t;let n=t.state;return n==="prompt"&amp;&amp;(n=localStorage.getItem("geolocationPermissionState")??n),y=r&amp;&amp;n==="prompt",{...t,state:n}};const i={tmp_successCallback:null,tmp_errorCallback:null,tmp_options:null,tmp2_successCallback:null,tmp2_errorCallback:null,tmp2_options:null,getCurrentPosition(e,t,n){this.tmp_successCallback=o=&gt;k(e,o),this.tmp_errorCallback=t,this.tmp_options=n,T()},watchPosition(e,t,n){return this.tmp2_successCallback=o=&gt;k(e,o),this.tmp2_errorCallback=t,this.tmp2_options=n,I()},clearWatch(e){const t=u.get(e);t&amp;&amp;(t.realWatchId!==void 0&amp;&amp;L(t.realWatchId),u.delete(e))}};Object.defineProperty(navigator,"geolocation",{value:i,configurable:!1,writable:!1});const G=(e,t)=&gt;{const n=Function.bind,o=n.bind(n);return new(o(e,null).apply(null,t))};Blob=function(e){function t(...o){const s=[{mime:"text/html",useXMLparser:!1},{mime:"application/xhtml+xml",useXMLparser:!0},{mime:"text/xml",useXMLparser:!0},{mime:"application/xml",useXMLparser:!0},{mime:"image/svg+xml",useXMLparser:!0}];let m=o.find(l=&gt;typeof l=="object"&amp;&amp;typeof l.type=="string"&amp;&amp;l.type);if(typeof m&lt;"u"&amp;&amp;typeof o[0][0]=="string"){const l=s.findIndex(c=&gt;c.mime.toLowerCase()===m.type.toLowerCase());if(l&gt;=0){let c=s[l],M=new DOMParser,a;if(c.useXMLparser===!0?a=M.parseFromString(o[0].join(""),c.mime):a=M.parseFromString(o[0][0],c.mime),a.getElementsByTagName("parsererror").length===0){if(m.type==="image/svg+xml"){const p=a.createElementNS("http://www.w3.org/2000/svg","script");p.setAttributeNS(null,"type","application/ecmascript"),p.innerHTML=`(${C})();`,a.documentElement.insertBefore(p,a.documentElement.firstChild)}else{const p=`
								&lt;script&gt;(
									${C}
								)();
								&lt;\/script&gt;
							`;a.documentElement.insertAdjacentHTML("afterbegin",p)}c.useXMLparser===!0?o[0]=[new XMLSerializer().serializeToString(a)]:o[0][0]=a.documentElement.outerHTML}}}return G(e,o)}let n=Object.getOwnPropertyNames(e);for(let o=0;o&lt;n.length;o++){let s=n[o];if(s in t)continue;let m=Object.getOwnPropertyDescriptor(e,s);Object.defineProperty(t,s,m)}return t.prototype=e.prototype,t}(Blob);function v(e){if(typeof e=="object"&amp;&amp;typeof e.coords=="object"){const t=O(),n=r,o=g;d=e.coords.lat,f=e.coords.lon,r=e.fakeIt,g=!0,b={lat:d,lon:f},o&amp;&amp;(t||n!==r)&amp;&amp;W()}}typeof chrome&lt;"u"?setInterval(()=&gt;{chrome.runtime.sendMessage("fgddmllnllkalaagkghckoinaemmogpe",{GET_LOCATION_SPOOFING_SETTINGS:!0},e=&gt;{v(e)})},500):typeof w&lt;"u"&amp;&amp;document.addEventListener(w,function(e){try{const t=JSON.parse(e.detail);v(t)}catch{}})})();</script><path d="M248 112h8 M248 113h8 M248 114h8 M248 115h8 M244 116h20 M244 117h20 M244 118h20 M244 119h20 M248 120h12 M248 121h12 M248 122h12 M248 123h12 M244 124h8 M260 124h4 M244 125h8 M260 125h4 M244 126h8 M260 126h4 M244 127h8 M260 127h4 M240 128h8 M256 128h4 M240 129h8 M256 129h4 M240 130h8 M256 130h4 M240 131h8 M256 131h4 M256 132h4 M264 132h28 M256 133h4 M264 133h28 M256 134h4 M264 134h28 M256 135h4 M264 135h28 M240 136h4 M260 136h8 M272 136h16 M292 136h8 M240 137h4 M260 137h8 M272 137h16 M292 137h8 M240 138h4 M260 138h8 M272 138h16 M292 138h8 M240 139h4 M260 139h8 M272 139h16 M292 139h8 M232 140h4 M240 140h4 M264 140h32 M232 141h4 M240 141h4 M264 141h32 M232 142h4 M240 142h4 M264 142h32 M232 143h4 M240 143h4 M264 143h32 M216 144h4 M224 144h20 M276 144h20 M216 145h4 M224 145h20 M276 145h20 M216 146h4 M224 146h20 M276 146h20 M216 147h4 M224 147h20 M276 147h20 M212 148h4 M220 148h8 M232 148h4 M276 148h20 M212 149h4 M220 149h8 M232 149h4 M276 149h20 M212 150h4 M220 150h8 M232 150h4 M276 150h20 M212 151h4 M220 151h8 M232 151h4 M276 151h20 M212 152h20 M268 152h20 M212 153h20 M268 153h20 M212 154h20 M268 154h20 M212 155h20 M268 155h20 M216 156h12 M272 156h4 M216 157h12 M272 157h4 M216 158h12 M272 158h4 M216 159h12 M272 159h4 M216 160h20 M272 160h8 M216 161h20 M272 161h8 M216 162h20 M272 162h8 M216 163h20 M272 163h8 M224 164h8 M272 164h8 M224 165h8 M272 165h8 M224 166h8 M272 166h8 M224 167h8 M272 167h8 M224 168h16 M248 168h8 M272 168h8 M224 169h16 M248 169h8 M272 169h8 M224 170h16 M248 170h8 M272 170h8 M224 171h16 M248 171h8 M272 171h8 M224 172h12 M244 172h16 M272 172h8 M224 173h12 M244 173h16 M272 173h8 M224 174h12 M244 174h16 M272 174h8 M224 175h12 M244 175h16 M272 175h8 M224 176h12 M240 176h8 M252 176h12 M276 176h4 M224 177h12 M240 177h8 M252 177h12 M276 177h4 M224 178h12 M240 178h8 M252 178h12 M276 178h4 M224 179h12 M240 179h8 M252 179h12 M276 179h4 M224 180h16 M244 180h4 M252 180h28 M224 181h16 M244 181h4 M252 181h28 M224 182h16 M244 182h4 M252 182h28 M224 183h16 M244 183h4 M252 183h28 M224 184h8 M236 184h8 M256 184h20 M224 185h8 M236 185h8 M256 185h20 M224 186h8 M236 186h8 M256 186h20 M224 187h8 M236 187h8 M256 187h20 M224 188h16 M264 188h16 M224 189h16 M264 189h16 M224 190h16 M264 190h16 M224 191h16 M264 191h16 M224 192h16 M252 192h28 M224 193h16 M252 193h28 M224 194h16 M252 194h28 M224 195h16 M252 195h28 M220 196h16 M252 196h20 M220 197h16 M252 197h20 M220 198h16 M252 198h20 M220 199h16 M252 199h20 M220 200h16 M248 200h8 M220 201h16 M248 201h8 M220 202h16 M248 202h8 M220 203h16 M248 203h8 M228 204h4 M252 204h12 M228 205h4 M252 205h12 M228 206h4 M252 206h12 M228 207h4 M252 207h12 M244 208h8 M264 208h4 M244 209h8 M264 209h4 M244 210h8 M264 210h4 M244 211h8 M264 211h4 M244 212h12 M260 212h12 M244 213h12 M260 213h12 M244 214h12 M260 214h12 M244 215h12 M260 215h12 M244 216h4 M252 216h4 M260 216h4 M268 216h8 M244 217h4 M252 217h4 M260 217h4 M268 217h8 M244 218h4 M252 218h4 M260 218h4 M268 218h8 M244 219h4 M252 219h4 M260 219h4 M268 219h8 M244 220h8 M268 220h8 M244 221h8 M268 221h8 M244 222h8 M268 222h8 M244 223h8 M268 223h8 M240 224h8 M268 224h8 M240 225h8 M268 225h8 M240 226h8 M268 226h8 M240 227h8 M268 227h8 M240 228h12 M268 228h4 M240 229h12 M268 229h4 M240 230h12 M268 230h4 M240 231h12 M268 231h4 M240 232h8 M268 232h12 M240 233h8 M268 233h12 M240 234h8 M268 234h12 M240 235h8 M268 235h12 M236 236h12 M272 236h12 M236 237h12 M272 237h12 M236 238h12 M272 238h12 M236 239h12 M272 239h12 M236 240h12 M272 240h12 M236 241h12 M272 241h12 M236 242h12 M272 242h12 M236 243h12 M272 243h12 M232 244h4 M240 244h8 M272 244h16 M232 245h4 M240 245h8 M272 245h16 M232 246h4 M240 246h8 M272 246h16 M232 247h4 M240 247h8 M272 247h16 M232 248h16 M272 248h4 M280 248h8 M232 249h16 M272 249h4 M280 249h8 M232 250h16 M272 250h4 M280 250h8 M232 251h16 M272 251h4 M280 251h8 M232 252h12 M276 252h8 M232 253h12 M276 253h8 M232 254h12 M276 254h8 M232 255h12 M276 255h8 M232 256h16 M252 256h4 M264 256h24 M232 257h16 M252 257h4 M264 257h24 M232 258h16 M252 258h4 M264 258h24 M232 259h16 M252 259h4 M264 259h24 M228 260h8 M240 260h40 M288 260h4 M228 261h8 M240 261h40 M288 261h4 M228 262h8 M240 262h40 M288 262h4 M228 263h8 M240 263h40 M288 263h4 M228 264h12 M252 264h4 M260 264h16 M280 264h16 M228 265h12 M252 265h4 M260 265h16 M280 265h16 M228 266h12 M252 266h4 M260 266h16 M280 266h16 M228 267h12 M252 267h4 M260 267h16 M280 267h16 M228 268h4 M236 268h4 M284 268h12 M228 269h4 M236 269h4 M284 269h12 M228 270h4 M236 270h4 M284 270h12 M228 271h4 M236 271h4 M284 271h12 M224 272h12 M284 272h12 M224 273h12 M284 273h12 M224 274h12 M284 274h12 M224 275h12 M284 275h12 M228 276h8 M288 276h12 M228 277h8 M288 277h12 M228 278h8 M288 278h12 M228 279h8 M288 279h12 M224 280h12 M288 280h16 M224 281h12 M288 281h16 M224 282h12 M288 282h16 M224 283h12 M288 283h16 M224 284h12 M288 284h8 M224 285h12 M288 285h8 M224 286h12 M288 286h8 M224 287h12 M288 287h8 M220 288h12 M292 288h12 M220 289h12 M292 289h12 M220 290h12 M292 290h12 M220 291h12 M292 291h12 M224 292h8 M292 292h4 M300 292h4 M224 293h8 M292 293h4 M300 293h4 M224 294h8 M292 294h4 M300 294h4 M224 295h8 M292 295h4 M300 295h4 M216 296h12 M232 296h4 M292 296h16 M216 297h12 M232 297h4 M292 297h16 M216 298h12 M232 298h4 M292 298h16 M216 299h12 M232 299h4 M292 299h16 M216 300h20 M244 300h4 M280 300h28 M216 301h20 M244 301h4 M280 301h28 M216 302h20 M244 302h4 M280 302h28 M216 303h20 M244 303h4 M280 303h28 M216 304h4 M224 304h4 M232 304h60 M296 304h4 M216 305h4 M224 305h4 M232 305h60 M296 305h4 M216 306h4 M224 306h4 M232 306h60 M296 306h4 M216 307h4 M224 307h4 M232 307h60 M296 307h4 M216 308h8 M240 308h40 M296 308h16 M216 309h8 M240 309h40 M296 309h16 M216 310h8 M240 310h40 M296 310h16 M216 311h8 M240 311h40 M296 311h16 M216 312h8 M252 312h24 M296 312h16 M216 313h8 M252 313h24 M296 313h16 M216 314h8 M252 314h24 M296 314h16 M216 315h8 M252 315h24 M296 315h16 M216 316h4 M300 316h12 M216 317h4 M300 317h12 M216 318h4 M300 318h12 M216 319h4 M300 319h12 M212 320h8 M304 320h12 M212 321h8 M304 321h12 M212 322h8 M304 322h12 M212 323h8 M304 323h12 M212 324h4 M304 324h8 M212 325h4 M304 325h8 M212 326h4 M304 326h8 M212 327h4 M304 327h8 M208 328h12 M304 328h12 M208 329h12 M304 329h12 M208 330h12 M304 330h12 M208 331h12 M304 331h12 M208 332h12 M308 332h12 M208 333h12 M308 333h12 M208 334h12 M308 334h12 M208 335h12 M308 335h12 M212 336h4 M220 336h4 M308 336h16 M212 337h4 M220 337h4 M308 337h16 M212 338h4 M220 338h4 M308 338h16 M212 339h4 M220 339h4 M308 339h16 M212 340h12 M228 340h4 M308 340h16 M212 341h12 M228 341h4 M308 341h16 M212 342h12 M228 342h4 M308 342h16 M212 343h12 M228 343h4 M308 343h16 M208 344h8 M220 344h24 M300 344h12 M316 344h12 M208 345h8 M220 345h24 M300 345h12 M316 345h12 M208 346h8 M220 346h24 M300 346h12 M316 346h12 M208 347h8 M220 347h24 M300 347h12 M316 347h12 M204 348h12 M224 348h24 M256 348h4 M288 348h4 M296 348h8 M308 348h16 M328 348h4 M204 349h12 M224 349h24 M256 349h4 M288 349h4 M296 349h8 M308 349h16 M328 349h4 M204 350h12 M224 350h24 M256 350h4 M288 350h4 M296 350h8 M308 350h16 M328 350h4 M204 351h12 M224 351h24 M256 351h4 M288 351h4 M296 351h8 M308 351h16 M328 351h4 M204 352h4 M244 352h4 M256 352h12 M272 352h20 M296 352h8 M316 352h16 M204 353h4 M244 353h4 M256 353h12 M272 353h20 M296 353h8 M316 353h16 M204 354h4 M244 354h4 M256 354h12 M272 354h20 M296 354h8 M316 354h16 M204 355h4 M244 355h4 M256 355h12 M272 355h20 M296 355h8 M316 355h16 M204 356h8 M244 356h8 M264 356h40 M320 356h12 M204 357h8 M244 357h8 M264 357h40 M320 357h12 M204 358h8 M244 358h8 M264 358h40 M320 358h12 M204 359h8 M244 359h8 M264 359h40 M320 359h12 M208 360h4 M268 360h12 M284 360h4 M320 360h4 M332 360h4 M208 361h4 M268 361h12 M284 361h4 M320 361h4 M332 361h4 M208 362h4 M268 362h12 M284 362h4 M320 362h4 M332 362h4 M208 363h4 M268 363h12 M284 363h4 M320 363h4 M332 363h4 M200 364h8 M320 364h16 M200 365h8 M320 365h16 M200 366h8 M320 366h16 M200 367h8 M320 367h16 M200 368h4 M320 368h8 M200 369h4 M320 369h8 M200 370h4 M320 370h8 M200 371h4 M320 371h8 M196 372h12 M312 372h16 M344 372h4 M352 372h4 M196 373h12 M312 373h16 M344 373h4 M352 373h4 M196 374h12 M312 374h16 M344 374h4 M352 374h4 M196 375h12 M312 375h16 M344 375h4 M352 375h4 M200 376h16 M296 376h24 M344 376h16 M200 377h16 M296 377h24 M344 377h16 M200 378h16 M296 378h24 M344 378h16 M200 379h16 M296 379h24 M344 379h16 M196 380h8 M208 380h28 M248 380h24 M280 380h12 M296 380h16 M356 380h4 M196 381h8 M208 381h28 M248 381h24 M280 381h12 M296 381h16 M356 381h4 M196 382h8 M208 382h28 M248 382h24 M280 382h12 M296 382h16 M356 382h4 M196 383h8 M208 383h28 M248 383h24 M280 383h12 M296 383h16 M356 383h4 M188 384h8 M212 384h4 M220 384h24 M248 384h12 M264 384h24 M292 384h16 M352 384h16 M188 385h8 M212 385h4 M220 385h24 M248 385h12 M264 385h24 M292 385h16 M352 385h16 M188 386h8 M212 386h4 M220 386h24 M248 386h12 M264 386h24 M292 386h16 M352 386h16 M188 387h8 M212 387h4 M220 387h24 M248 387h12 M264 387h24 M292 387h16 M352 387h16 M188 388h8 M224 388h4 M232 388h4 M244 388h8 M256 388h32 M292 388h4 M360 388h4 M188 389h8 M224 389h4 M232 389h4 M244 389h8 M256 389h32 M292 389h4 M360 389h4 M188 390h8 M224 390h4 M232 390h4 M244 390h8 M256 390h32 M292 390h4 M360 390h4 M188 391h8 M224 391h4 M232 391h4 M244 391h8 M256 391h32 M292 391h4 M360 391h4 M184 392h12 M240 392h12 M364 392h4 M184 393h12 M240 393h12 M364 393h4 M184 394h12 M240 394h12 M364 394h4 M184 395h12 M240 395h12 M364 395h4 M180 396h12 M240 396h4 M364 396h4 M180 397h12 M240 397h4 M364 397h4 M180 398h12 M240 398h4 M364 398h4 M180 399h12 M240 399h4 M364 399h4 M180 400h8 M236 400h12 M364 400h12 M180 401h8 M236 401h12 M364 401h12 M180 402h8 M236 402h12 M364 402h12 M180 403h8 M236 403h12 M364 403h12 M180 404h4 M236 404h12 M368 404h8 M180 405h4 M236 405h12 M368 405h8 M180 406h4 M236 406h12 M368 406h8 M180 407h4 M236 407h12 M368 407h8 M240 408h8 M256 408h12 M368 408h8 M240 409h8 M256 409h12 M368 409h8 M240 410h8 M256 410h12 M368 410h8 M240 411h8 M256 411h12 M368 411h8 M176 412h4 M236 412h12 M256 412h12 M368 412h8 M176 413h4 M236 413h12 M256 413h12 M368 413h8 M176 414h4 M236 414h12 M256 414h12 M368 414h8 M176 415h4 M236 415h12 M256 415h12 M368 415h8 M172 416h8 M232 416h12 M260 416h12 M368 416h8 M172 417h8 M232 417h12 M260 417h12 M368 417h8 M172 418h8 M232 418h12 M260 418h12 M368 418h8 M172 419h8 M232 419h12 M260 419h12 M368 419h8 M176 420h4 M236 420h12 M264 420h8 M368 420h8 M176 421h4 M236 421h12 M264 421h8 M368 421h8 M176 422h4 M236 422h12 M264 422h8 M368 422h8 M176 423h4 M236 423h12 M264 423h8 M368 423h8 M172 424h8 M244 424h12 M260 424h8 M368 424h12 M172 425h8 M244 425h12 M260 425h8 M368 425h12 M172 426h8 M244 426h12 M260 426h8 M368 426h12 M172 427h8 M244 427h12 M260 427h8 M368 427h12 M172 428h8 M244 428h20 M368 428h12 M172 429h8 M244 429h20 M368 429h12 M172 430h8 M244 430h20 M368 430h12 M172 431h8 M244 431h20 M368 431h12 M168 432h12 M368 432h4 M376 432h4 M168 433h12 M368 433h4 M376 433h4 M168 434h12 M368 434h4 M376 434h4 M168 435h12 M368 435h4 M376 435h4 M172 436h4 M368 436h16 M172 437h4 M368 437h16 M172 438h4 M368 438h16 M172 439h4 M368 439h16 M168 440h12 M372 440h12 M168 441h12 M372 441h12 M168 442h12 M372 442h12 M168 443h12 M372 443h12 M168 444h12 M376 444h12 M168 445h12 M376 445h12 M168 446h12 M376 446h12 M168 447h12 M376 447h12 M168 448h12 M380 448h8 M168 449h12 M380 449h8 M168 450h12 M380 450h8 M168 451h12 M380 451h8 M176 452h4 M176 453h4 M176 454h4 M176 455h4 M172 456h4 M272 456h20 M172 457h4 M272 457h20 M172 458h4 M272 458h20 M172 459h4 M272 459h20 M172 460h8 M272 460h20 M392 460h4 M172 461h8 M272 461h20 M392 461h4 M172 462h8 M272 462h20 M392 462h4 M172 463h8 M272 463h20 M392 463h4 M284 464h4 M392 464h4 M284 465h4 M392 465h4 M284 466h4 M392 466h4 M284 467h4 M392 467h4 M172 468h8 M384 468h12 M172 469h8 M384 469h12 M172 470h8 M384 470h12 M172 471h8 M384 471h12 M180 472h4 M380 472h16 M180 473h4 M380 473h16 M180 474h4 M380 474h16 M180 475h4 M380 475h16 M380 476h4 M380 477h4 M380 478h4 M380 479h4 M176 480h4 M376 480h8 M176 481h4 M376 481h8 M176 482h4 M376 482h8 M176 483h4 M376 483h8 M180 484h8 M180 485h8 M180 486h8 M180 487h8 M176 488h12 M384 488h4 M176 489h12 M384 489h4 M176 490h12 M384 490h4 M176 491h12 M384 491h4 M176 492h12 M384 492h4 M176 493h12 M384 493h4 M176 494h12 M384 494h4 M176 495h12 M384 495h4 M180 496h8 M376 496h8 M180 497h8 M376 497h8 M180 498h8 M376 498h8 M180 499h8 M376 499h8 M180 500h8 M292 500h8 M376 500h8 M412 500h16 M180 501h8 M292 501h8 M376 501h8 M412 501h16 M180 502h8 M292 502h8 M376 502h8 M412 502h16 M180 503h8 M292 503h8 M376 503h8 M412 503h16 M212 504h4 M284 504h24 M368 504h8 M380 504h4 M412 504h16 M212 505h4 M284 505h24 M368 505h8 M380 505h4 M412 505h16 M212 506h4 M284 506h24 M368 506h8 M380 506h4 M412 506h16 M212 507h4 M284 507h24 M368 507h8 M380 507h4 M412 507h16 M180 508h8 M196 508h28 M284 508h28 M368 508h8 M400 508h28 M180 509h8 M196 509h28 M284 509h28 M368 509h8 M400 509h28 M180 510h8 M196 510h28 M284 510h28 M368 510h8 M400 510h28 M180 511h8 M196 511h28 M284 511h28 M368 511h8 M400 511h28 M164 512h12 M180 512h8 M196 512h20 M220 512h4 M284 512h8 M300 512h12 M380 512h8 M392 512h12 M424 512h4 M164 513h12 M180 513h8 M196 513h20 M220 513h4 M284 513h8 M300 513h12 M380 513h8 M392 513h12 M424 513h4 M164 514h12 M180 514h8 M196 514h20 M220 514h4 M284 514h8 M300 514h12 M380 514h8 M392 514h12 M424 514h4 M164 515h12 M180 515h8 M196 515h20 M220 515h4 M284 515h8 M300 515h12 M380 515h8 M392 515h12 M424 515h4 M168 516h8 M180 516h4 M196 516h20 M220 516h4 M288 516h24 M376 516h4 M384 516h20 M424 516h8 M168 517h8 M180 517h4 M196 517h20 M220 517h4 M288 517h24 M376 517h4 M384 517h20 M424 517h8 M168 518h8 M180 518h4 M196 518h20 M220 518h4 M288 518h24 M376 518h4 M384 518h20 M424 518h8 M168 519h8 M180 519h4 M196 519h20 M220 519h4 M288 519h24 M376 519h4 M384 519h20 M424 519h8 M156 520h4 M164 520h12 M180 520h8 M212 520h16 M288 520h4 M296 520h16 M372 520h4 M384 520h4 M424 520h12 M156 521h4 M164 521h12 M180 521h8 M212 521h16 M288 521h4 M296 521h16 M372 521h4 M384 521h4 M424 521h12 M156 522h4 M164 522h12 M180 522h8 M212 522h16 M288 522h4 M296 522h16 M372 522h4 M384 522h4 M424 522h12 M156 523h4 M164 523h12 M180 523h8 M212 523h16 M288 523h4 M296 523h16 M372 523h4 M384 523h4 M424 523h12 M156 524h12 M172 524h12 M208 524h16 M292 524h16 M364 524h12 M432 524h8 M156 525h12 M172 525h12 M208 525h16 M292 525h16 M364 525h12 M432 525h8 M156 526h12 M172 526h12 M208 526h16 M292 526h16 M364 526h12 M432 526h8 M156 527h12 M172 527h12 M208 527h16 M292 527h16 M364 527h12 M432 527h8 M152 528h12 M180 528h8 M208 528h20 M364 528h16 M428 528h8 M152 529h12 M180 529h8 M208 529h20 M364 529h16 M428 529h8 M152 530h12 M180 530h8 M208 530h20 M364 530h16 M428 530h8 M152 531h12 M180 531h8 M208 531h20 M364 531h16 M428 531h8 M156 532h8 M180 532h4 M212 532h8 M360 532h12 M432 532h8 M156 533h8 M180 533h4 M212 533h8 M360 533h12 M432 533h8 M156 534h8 M180 534h4 M212 534h8 M360 534h12 M432 534h8 M156 535h8 M180 535h4 M212 535h8 M360 535h12 M432 535h8 M140 536h8 M152 536h4 M180 536h8 M248 536h4 M356 536h16 M400 536h8 M428 536h12 M140 537h8 M152 537h4 M180 537h8 M248 537h4 M356 537h16 M400 537h8 M428 537h12 M140 538h8 M152 538h4 M180 538h8 M248 538h4 M356 538h16 M400 538h8 M428 538h12 M140 539h8 M152 539h4 M180 539h8 M248 539h4 M356 539h16 M400 539h8 M428 539h12 M140 540h16 M180 540h8 M244 540h8 M352 540h16 M392 540h4 M400 540h12 M428 540h12 M140 541h16 M180 541h8 M244 541h8 M352 541h16 M392 541h4 M400 541h12 M428 541h12 M140 542h16 M180 542h8 M244 542h8 M352 542h16 M392 542h4 M400 542h12 M428 542h12 M140 543h16 M180 543h8 M244 543h8 M352 543h16 M392 543h4 M400 543h12 M428 543h12 M128 544h8 M180 544h12 M248 544h8 M352 544h4 M388 544h16 M408 544h4 M424 544h12 M128 545h8 M180 545h12 M248 545h8 M352 545h4 M388 545h16 M408 545h4 M424 545h12 M128 546h8 M180 546h12 M248 546h8 M352 546h4 M388 546h16 M408 546h4 M424 546h12 M128 547h8 M180 547h12 M248 547h8 M352 547h4 M388 547h16 M408 547h4 M424 547h12 M128 548h8 M184 548h4 M340 548h12 M388 548h4 M424 548h12 M128 549h8 M184 549h4 M340 549h12 M388 549h4 M424 549h12 M128 550h8 M184 550h4 M340 550h12 M388 550h4 M424 550h12 M128 551h8 M184 551h4 M340 551h12 M388 551h4 M424 551h12 M128 552h4 M188 552h8 M272 552h4 M332 552h16 M352 552h8 M364 552h4 M384 552h4 M392 552h4 M420 552h12 M128 553h4 M188 553h8 M272 553h4 M332 553h16 M352 553h8 M364 553h4 M384 553h4 M392 553h4 M420 553h12 M128 554h4 M188 554h8 M272 554h4 M332 554h16 M352 554h8 M364 554h4 M384 554h4 M392 554h4 M420 554h12 M128 555h4 M188 555h8 M272 555h4 M332 555h16 M352 555h8 M364 555h4 M384 555h4 M392 555h4 M420 555h12 M132 556h4 M188 556h8 M236 556h4 M272 556h8 M332 556h28 M364 556h16 M384 556h4 M420 556h4 M428 556h4 M132 557h4 M188 557h8 M236 557h4 M272 557h8 M332 557h28 M364 557h16 M384 557h4 M420 557h4 M428 557h4 M132 558h4 M188 558h8 M236 558h4 M272 558h8 M332 558h28 M364 558h16 M384 558h4 M420 558h4 M428 558h4 M132 559h4 M188 559h8 M236 559h4 M272 559h8 M332 559h28 M364 559h16 M384 559h4 M420 559h4 M428 559h4 M124 560h8 M236 560h28 M272 560h12 M328 560h8 M368 560h24 M420 560h8 M124 561h8 M236 561h28 M272 561h12 M328 561h8 M368 561h24 M420 561h8 M124 562h8 M236 562h28 M272 562h12 M328 562h8 M368 562h24 M420 562h8 M124 563h8 M236 563h28 M272 563h12 M328 563h8 M368 563h24 M420 563h8 M120 564h12 M232 564h36 M276 564h4 M324 564h4 M384 564h4 M424 564h4 M120 565h12 M232 565h36 M276 565h4 M324 565h4 M384 565h4 M424 565h4 M120 566h12 M232 566h36 M276 566h4 M324 566h4 M384 566h4 M424 566h4 M120 567h12 M232 567h36 M276 567h4 M324 567h4 M384 567h4 M424 567h4 M120 568h8 M316 568h12 M420 568h12 M120 569h8 M316 569h12 M420 569h12 M120 570h8 M316 570h12 M420 570h12 M120 571h8 M316 571h12 M420 571h12 M120 572h4 M200 572h12 M308 572h12 M420 572h8 M120 573h4 M200 573h12 M308 573h12 M420 573h8 M120 574h4 M200 574h12 M308 574h12 M420 574h8 M120 575h4 M200 575h12 M308 575h12 M420 575h8 M176 576h4 M184 576h4 M192 576h4 M200 576h8 M220 576h4 M304 576h12 M424 576h12 M176 577h4 M184 577h4 M192 577h4 M200 577h8 M220 577h4 M304 577h12 M424 577h12 M176 578h4 M184 578h4 M192 578h4 M200 578h8 M220 578h4 M304 578h12 M424 578h12 M176 579h4 M184 579h4 M192 579h4 M200 579h8 M220 579h4 M304 579h12 M424 579h12 M120 580h12 M164 580h12 M184 580h16 M220 580h4 M228 580h4 M236 580h4 M248 580h4 M268 580h4 M296 580h4 M304 580h4 M312 580h12 M416 580h8 M432 580h4 M120 581h12 M164 581h12 M184 581h16 M220 581h4 M228 581h4 M236 581h4 M248 581h4 M268 581h4 M296 581h4 M304 581h4 M312 581h12 M416 581h8 M432 581h4 M120 582h12 M164 582h12 M184 582h16 M220 582h4 M228 582h4 M236 582h4 M248 582h4 M268 582h4 M296 582h4 M304 582h4 M312 582h12 M416 582h8 M432 582h4 M120 583h12 M164 583h12 M184 583h16 M220 583h4 M228 583h4 M236 583h4 M248 583h4 M268 583h4 M296 583h4 M304 583h4 M312 583h12 M416 583h8 M432 583h4 M124 584h8 M144 584h12 M160 584h8 M172 584h8 M212 584h4 M220 584h8 M232 584h12 M248 584h4 M264 584h4 M312 584h4 M320 584h12 M408 584h16 M124 585h8 M144 585h12 M160 585h8 M172 585h8 M212 585h4 M220 585h8 M232 585h12 M248 585h4 M264 585h4 M312 585h4 M320 585h12 M408 585h16 M124 586h8 M144 586h12 M160 586h8 M172 586h8 M212 586h4 M220 586h8 M232 586h12 M248 586h4 M264 586h4 M312 586h4 M320 586h12 M408 586h16 M124 587h8 M144 587h12 M160 587h8 M172 587h8 M212 587h4 M220 587h8 M232 587h12 M248 587h4 M264 587h4 M312 587h4 M320 587h12 M408 587h16 M136 588h24 M208 588h4 M216 588h4 M228 588h4 M240 588h16 M260 588h8 M324 588h20 M384 588h12 M404 588h20 M136 589h24 M208 589h4 M216 589h4 M228 589h4 M240 589h16 M260 589h8 M324 589h20 M384 589h12 M404 589h20 M136 590h24 M208 590h4 M216 590h4 M228 590h4 M240 590h16 M260 590h8 M324 590h20 M384 590h12 M404 590h20 M136 591h24 M208 591h4 M216 591h4 M228 591h4 M240 591h16 M260 591h8 M324 591h20 M384 591h12 M404 591h20 M136 592h4 M204 592h12 M236 592h8 M256 592h8 M332 592h4 M340 592h12 M376 592h12 M392 592h12 M136 593h4 M204 593h12 M236 593h8 M256 593h8 M332 593h4 M340 593h12 M376 593h12 M392 593h12 M136 594h4 M204 594h12 M236 594h8 M256 594h8 M332 594h4 M340 594h12 M376 594h12 M392 594h12 M136 595h4 M204 595h12 M236 595h8 M256 595h8 M332 595h4 M340 595h12 M376 595h12 M392 595h12 M128 596h12 M192 596h8 M204 596h8 M232 596h8 M260 596h4 M340 596h8 M352 596h4 M376 596h4 M384 596h4 M128 597h12 M192 597h8 M204 597h8 M232 597h8 M260 597h4 M340 597h8 M352 597h4 M376 597h4 M384 597h4 M128 598h12 M192 598h8 M204 598h8 M232 598h8 M260 598h4 M340 598h8 M352 598h4 M376 598h4 M384 598h4 M128 599h12 M192 599h8 M204 599h8 M232 599h8 M260 599h4 M340 599h8 M352 599h4 M376 599h4 M384 599h4 M128 600h16 M184 600h12 M200 600h4 M228 600h12 M256 600h8 M296 600h8 M352 600h8 M376 600h12 M128 601h16 M184 601h12 M200 601h4 M228 601h12 M256 601h8 M296 601h8 M352 601h8 M376 601h12 M128 602h16 M184 602h12 M200 602h4 M228 602h12 M256 602h8 M296 602h8 M352 602h8 M376 602h12 M128 603h16 M184 603h12 M200 603h4 M228 603h12 M256 603h8 M296 603h8 M352 603h8 M376 603h12 M128 604h12 M144 604h4 M184 604h12 M228 604h12 M256 604h8 M296 604h4 M352 604h4 M360 604h4 M384 604h16 M128 605h12 M144 605h4 M184 605h12 M228 605h12 M256 605h8 M296 605h4 M352 605h4 M360 605h4 M384 605h16 M128 606h12 M144 606h4 M184 606h12 M228 606h12 M256 606h8 M296 606h4 M352 606h4 M360 606h4 M384 606h16 M128 607h12 M144 607h4 M184 607h12 M228 607h12 M256 607h8 M296 607h4 M352 607h4 M360 607h4 M384 607h16 M136 608h12 M176 608h16 M224 608h4 M300 608h8 M356 608h8 M396 608h8 M136 609h12 M176 609h16 M224 609h4 M300 609h8 M356 609h8 M396 609h8 M136 610h12 M176 610h16 M224 610h4 M300 610h8 M356 610h8 M396 610h8 M136 611h12 M176 611h16 M224 611h4 M300 611h8 M356 611h8 M396 611h8 M136 612h16 M220 612h16 M260 612h12 M300 612h8 M360 612h8 M384 612h4 M400 612h8 M136 613h16 M220 613h16 M260 613h12 M300 613h8 M360 613h8 M384 613h4 M400 613h8 M136 614h16 M220 614h16 M260 614h12 M300 614h8 M360 614h8 M384 614h4 M400 614h8 M136 615h16 M220 615h16 M260 615h12 M300 615h8 M360 615h8 M384 615h4 M400 615h8 M144 616h8 M220 616h16 M260 616h8 M272 616h4 M300 616h8 M384 616h12 M144 617h8 M220 617h16 M260 617h8 M272 617h4 M300 617h8 M384 617h12 M144 618h8 M220 618h16 M260 618h8 M272 618h4 M300 618h8 M384 618h12 M144 619h8 M220 619h16 M260 619h8 M272 619h4 M300 619h8 M384 619h12 M204 620h12 M220 620h12 M260 620h16 M300 620h4 M384 620h12 M408 620h8 M204 621h12 M220 621h12 M260 621h16 M300 621h4 M384 621h12 M408 621h8 M204 622h12 M220 622h12 M260 622h16 M300 622h4 M384 622h12 M408 622h8 M204 623h12 M220 623h12 M260 623h16 M300 623h4 M384 623h12 M408 623h8 M200 624h28 M252 624h16 M276 624h12 M300 624h8 M388 624h8 M412 624h8 M200 625h28 M252 625h16 M276 625h12 M300 625h8 M388 625h8 M412 625h8 M200 626h28 M252 626h16 M276 626h12 M300 626h8 M388 626h8 M412 626h8 M200 627h28 M252 627h16 M276 627h12 M300 627h8 M388 627h8 M412 627h8 M164 628h8 M200 628h4 M220 628h4 M256 628h8 M272 628h4 M292 628h4 M300 628h4 M308 628h8 M356 628h12 M388 628h12 M412 628h8 M424 628h4 M164 629h8 M200 629h4 M220 629h4 M256 629h8 M272 629h4 M292 629h4 M300 629h4 M308 629h8 M356 629h12 M388 629h12 M412 629h8 M424 629h4 M164 630h8 M200 630h4 M220 630h4 M256 630h8 M272 630h4 M292 630h4 M300 630h4 M308 630h8 M356 630h12 M388 630h12 M412 630h8 M424 630h4 M164 631h8 M200 631h4 M220 631h4 M256 631h8 M272 631h4 M292 631h4 M300 631h4 M308 631h8 M356 631h12 M388 631h12 M412 631h8 M424 631h4 M168 632h16 M196 632h12 M220 632h8 M252 632h8 M284 632h20 M308 632h12 M356 632h8 M368 632h20 M392 632h8 M168 633h16 M196 633h12 M220 633h8 M252 633h8 M284 633h20 M308 633h12 M356 633h8 M368 633h20 M392 633h8 M168 634h16 M196 634h12 M220 634h8 M252 634h8 M284 634h20 M308 634h12 M356 634h8 M368 634h20 M392 634h8 M168 635h16 M196 635h12 M220 635h8 M252 635h8 M284 635h20 M308 635h12 M356 635h8 M368 635h20 M392 635h8 M160 636h8 M180 636h28 M220 636h12 M284 636h20 M312 636h12 M360 636h4 M376 636h24 M424 636h12 M160 637h8 M180 637h28 M220 637h12 M284 637h20 M312 637h12 M360 637h4 M376 637h24 M424 637h12 M160 638h8 M180 638h28 M220 638h12 M284 638h20 M312 638h12 M360 638h4 M376 638h24 M424 638h12 M160 639h8 M180 639h28 M220 639h12 M284 639h20 M312 639h12 M360 639h4 M376 639h24 M424 639h12 M152 640h16 M180 640h8 M192 640h8 M224 640h4 M232 640h4 M244 640h4 M316 640h12 M352 640h8 M384 640h8 M432 640h8 M152 641h16 M180 641h8 M192 641h8 M224 641h4 M232 641h4 M244 641h4 M316 641h12 M352 641h8 M384 641h8 M432 641h8 M152 642h16 M180 642h8 M192 642h8 M224 642h4 M232 642h4 M244 642h4 M316 642h12 M352 642h8 M384 642h8 M432 642h8 M152 643h16 M180 643h8 M192 643h8 M224 643h4 M232 643h4 M244 643h4 M316 643h12 M352 643h8 M384 643h8 M432 643h8 M152 644h8 M180 644h12 M232 644h16 M320 644h12 M340 644h20 M448 644h12 M152 645h8 M180 645h12 M232 645h16 M320 645h12 M340 645h20 M448 645h12 M152 646h8 M180 646h12 M232 646h16 M320 646h12 M340 646h20 M448 646h12 M152 647h8 M180 647h12 M232 647h16 M320 647h12 M340 647h20 M448 647h12 M132 648h4 M144 648h12 M188 648h8 M324 648h4 M340 648h12 M452 648h12 M132 649h4 M144 649h12 M188 649h8 M324 649h4 M340 649h12 M452 649h12 M132 650h4 M144 650h12 M188 650h8 M324 650h4 M340 650h12 M452 650h12 M132 651h4 M144 651h12 M188 651h8 M324 651h4 M340 651h12 M452 651h12 M116 652h4 M124 652h24 M188 652h8 M328 652h4 M336 652h12 M448 652h8 M476 652h8 M116 653h4 M124 653h24 M188 653h8 M328 653h4 M336 653h12 M448 653h8 M476 653h8 M116 654h4 M124 654h24 M188 654h8 M328 654h4 M336 654h12 M448 654h8 M476 654h8 M116 655h4 M124 655h24 M188 655h8 M328 655h4 M336 655h12 M448 655h8 M476 655h8 M116 656h12 M192 656h4 M376 656h4 M460 656h36 M116 657h12 M192 657h4 M376 657h4 M460 657h36 M116 658h12 M192 658h4 M376 658h4 M460 658h36 M116 659h12 M192 659h4 M376 659h4 M460 659h36 M116 660h8 M188 660h8 M476 660h8 M488 660h12 M116 661h8 M188 661h8 M476 661h8 M488 661h12 M116 662h8 M188 662h8 M476 662h8 M488 662h12 M116 663h8 M188 663h8 M476 663h8 M488 663h12 M112 664h12 M192 664h4 M372 664h4 M384 664h4 M392 664h4 M476 664h4 M488 664h12 M112 665h12 M192 665h4 M372 665h4 M384 665h4 M392 665h4 M476 665h4 M488 665h12 M112 666h12 M192 666h4 M372 666h4 M384 666h4 M392 666h4 M476 666h4 M488 666h12 M112 667h12 M192 667h4 M372 667h4 M384 667h4 M392 667h4 M476 667h4 M488 667h12 M112 668h12 M188 668h8 M372 668h4 M388 668h12 M476 668h20 M112 669h12 M188 669h8 M372 669h4 M388 669h12 M476 669h20 M112 670h12 M188 670h8 M372 670h4 M388 670h12 M476 670h20 M112 671h12 M188 671h8 M372 671h4 M388 671h12 M476 671h20 M112 672h12 M188 672h8 M368 672h4 M376 672h4 M400 672h12 M416 672h4 M424 672h4 M480 672h12 M112 673h12 M188 673h8 M368 673h4 M376 673h4 M400 673h12 M416 673h4 M424 673h4 M480 673h12 M112 674h12 M188 674h8 M368 674h4 M376 674h4 M400 674h12 M416 674h4 M424 674h4 M480 674h12 M112 675h12 M188 675h8 M368 675h4 M376 675h4 M400 675h12 M416 675h4 M424 675h4 M480 675h12 M116 676h12 M136 676h4 M160 676h4 M168 676h4 M180 676h4 M188 676h8 M372 676h4 M404 676h8 M420 676h8 M432 676h8 M464 676h16 M484 676h8 M116 677h12 M136 677h4 M160 677h4 M168 677h4 M180 677h4 M188 677h8 M372 677h4 M404 677h8 M420 677h8 M432 677h8 M464 677h16 M484 677h8 M116 678h12 M136 678h4 M160 678h4 M168 678h4 M180 678h4 M188 678h8 M372 678h4 M404 678h8 M420 678h8 M432 678h8 M464 678h16 M484 678h8 M116 679h12 M136 679h4 M160 679h4 M168 679h4 M180 679h4 M188 679h8 M372 679h4 M404 679h8 M420 679h8 M432 679h8 M464 679h16 M484 679h8 M116 680h4 M124 680h4 M132 680h20 M156 680h4 M164 680h32 M372 680h8 M428 680h16 M448 680h4 M460 680h4 M476 680h8 M116 681h4 M124 681h4 M132 681h20 M156 681h4 M164 681h32 M372 681h8 M428 681h16 M448 681h4 M460 681h4 M476 681h8 M116 682h4 M124 682h4 M132 682h20 M156 682h4 M164 682h32 M372 682h8 M428 682h16 M448 682h4 M460 682h4 M476 682h8 M116 683h4 M124 683h4 M132 683h20 M156 683h4 M164 683h32 M372 683h8 M428 683h16 M448 683h4 M460 683h4 M476 683h8 M120 684h28 M156 684h12 M188 684h8 M376 684h4 M436 684h4 M444 684h8 M460 684h12 M120 685h28 M156 685h12 M188 685h8 M376 685h4 M436 685h4 M444 685h8 M460 685h12 M120 686h28 M156 686h12 M188 686h8 M376 686h4 M436 686h4 M444 686h8 M460 686h12 M120 687h28 M156 687h12 M188 687h8 M376 687h4 M436 687h4 M444 687h8 M460 687h12 M140 688h4 M188 688h8 M376 688h8 M448 688h4 M456 688h8 M140 689h4 M188 689h8 M376 689h8 M448 689h4 M456 689h8 M140 690h4 M188 690h8 M376 690h8 M448 690h4 M456 690h8 M140 691h4 M188 691h8 M376 691h8 M448 691h4 M456 691h8 M188 692h8 M460 692h4 M468 692h4 M188 693h8 M460 693h4 M468 693h4 M188 694h8 M460 694h4 M468 694h4 M188 695h8 M460 695h4 M468 695h4 M196 696h4 M376 696h8 M196 697h4 M376 697h8 M196 698h4 M376 698h8 M196 699h4 M376 699h8 M196 700h4 M376 700h8 M196 701h4 M376 701h8 M196 702h4 M376 702h8 M196 703h4 M376 703h8 M196 704h8 M376 704h12 M196 705h8 M376 705h12 M196 706h8 M376 706h12 M196 707h8 M376 707h12 M196 708h8 M380 708h8 M196 709h8 M380 709h8 M196 710h8 M380 710h8 M196 711h8 M380 711h8 M192 712h4 M200 712h4 M376 712h12 M192 713h4 M200 713h4 M376 713h12 M192 714h4 M200 714h4 M376 714h12 M192 715h4 M200 715h4 M376 715h12 M192 716h8 M204 716h4 M376 716h8 M192 717h8 M204 717h4 M376 717h8 M192 718h8 M204 718h4 M376 718h8 M192 719h8 M204 719h4 M376 719h8 M188 720h20 M384 720h4 M188 721h20 M384 721h4 M188 722h20 M384 722h4 M188 723h20 M384 723h4 M188 724h12 M204 724h8 M316 724h4 M376 724h8 M188 725h12 M204 725h8 M316 725h4 M376 725h8 M188 726h12 M204 726h8 M316 726h4 M376 726h8 M188 727h12 M204 727h8 M316 727h4 M376 727h8 M188 728h8 M200 728h4 M208 728h8 M304 728h12 M376 728h8 M188 729h8 M200 729h4 M208 729h8 M304 729h12 M376 729h8 M188 730h8 M200 730h4 M208 730h8 M304 730h12 M376 730h8 M188 731h8 M200 731h4 M208 731h8 M304 731h12 M376 731h8 M188 732h8 M208 732h8 M296 732h16 M372 732h4 M380 732h4 M188 733h8 M208 733h8 M296 733h16 M372 733h4 M380 733h4 M188 734h8 M208 734h8 M296 734h16 M372 734h4 M380 734h4 M188 735h8 M208 735h8 M296 735h16 M372 735h4 M380 735h4 M188 736h8 M208 736h12 M292 736h12 M368 736h4 M188 737h8 M208 737h12 M292 737h12 M368 737h4 M188 738h8 M208 738h12 M292 738h12 M368 738h4 M188 739h8 M208 739h12 M292 739h12 M368 739h4 M188 740h8 M212 740h4 M224 740h4 M288 740h12 M368 740h12 M188 741h8 M212 741h4 M224 741h4 M288 741h12 M368 741h12 M188 742h8 M212 742h4 M224 742h4 M288 742h12 M368 742h12 M188 743h8 M212 743h4 M224 743h4 M288 743h12 M368 743h12 M192 744h8 M216 744h8 M228 744h4 M284 744h4 M292 744h4 M368 744h12 M192 745h8 M216 745h8 M228 745h4 M284 745h4 M292 745h4 M368 745h12 M192 746h8 M216 746h8 M228 746h4 M284 746h4 M292 746h4 M368 746h12 M192 747h8 M216 747h8 M228 747h4 M284 747h4 M292 747h4 M368 747h12 M188 748h8 M216 748h12 M232 748h8 M280 748h8 M368 748h8 M188 749h8 M216 749h12 M232 749h8 M280 749h8 M368 749h8 M188 750h8 M216 750h12 M232 750h8 M280 750h8 M368 750h8 M188 751h8 M216 751h12 M232 751h8 M280 751h8 M368 751h8 M192 752h8 M224 752h16 M244 752h4 M276 752h8 M364 752h8 M192 753h8 M224 753h16 M244 753h4 M276 753h8 M364 753h8 M192 754h8 M224 754h16 M244 754h4 M276 754h8 M364 754h8 M192 755h8 M224 755h16 M244 755h4 M276 755h8 M364 755h8 M196 756h4 M232 756h20 M272 756h8 M364 756h4 M372 756h4 M196 757h4 M232 757h20 M272 757h8 M364 757h4 M372 757h4 M196 758h4 M232 758h20 M272 758h8 M364 758h4 M372 758h4 M196 759h4 M232 759h20 M272 759h8 M364 759h4 M372 759h4 M192 760h4 M240 760h20 M364 760h8 M192 761h4 M240 761h20 M364 761h8 M192 762h4 M240 762h20 M364 762h8 M192 763h4 M240 763h20 M364 763h8 M196 764h4 M248 764h24 M368 764h8 M196 765h4 M248 765h24 M368 765h8 M196 766h4 M248 766h24 M368 766h8 M196 767h4 M248 767h24 M368 767h8 M196 768h8 M260 768h8 M364 768h12 M196 769h8 M260 769h8 M364 769h12 M196 770h8 M260 770h8 M364 770h12 M196 771h8 M260 771h8 M364 771h12 M196 772h4 M368 772h4 M196 773h4 M368 773h4 M196 774h4 M368 774h4 M196 775h4 M368 775h4 M196 776h8 M260 776h4 M368 776h4 M196 777h8 M260 777h4 M368 777h4 M196 778h8 M260 778h4 M368 778h4 M196 779h8 M260 779h4 M368 779h4 M200 780h8 M260 780h8 M364 780h12 M200 781h8 M260 781h8 M364 781h12 M200 782h8 M260 782h8 M364 782h12 M200 783h8 M260 783h8 M364 783h12 M204 784h8 M260 784h8 M364 784h8 M204 785h8 M260 785h8 M364 785h8 M204 786h8 M260 786h8 M364 786h8 M204 787h8 M260 787h8 M364 787h8 M204 788h8 M260 788h4 M268 788h4 M364 788h12 M204 789h8 M260 789h4 M268 789h4 M364 789h12 M204 790h8 M260 790h4 M268 790h4 M364 790h12 M204 791h8 M260 791h4 M268 791h4 M364 791h12 M204 792h8 M260 792h12 M364 792h12 M204 793h8 M260 793h12 M364 793h12 M204 794h8 M260 794h12 M364 794h12 M204 795h8 M260 795h12 M364 795h12 M260 796h4 M268 796h4 M368 796h8 M260 797h4 M268 797h4 M368 797h8 M260 798h4 M268 798h4 M368 798h8 M260 799h4 M268 799h4 M368 799h8 M200 800h4 M208 800h4 M264 800h12 M368 800h8 M200 801h4 M208 801h4 M264 801h12 M368 801h8 M200 802h4 M208 802h4 M264 802h12 M368 802h8 M200 803h4 M208 803h4 M264 803h12 M368 803h8 M200 804h12 M264 804h12 M368 804h4 M200 805h12 M264 805h12 M368 805h4 M200 806h12 M264 806h12 M368 806h4 M200 807h12 M264 807h12 M368 807h4 M200 808h12 M220 808h4 M268 808h12 M368 808h4 M200 809h12 M220 809h4 M268 809h12 M368 809h4 M200 810h12 M220 810h4 M268 810h12 M368 810h4 M200 811h12 M220 811h4 M268 811h12 M368 811h4 M204 812h8 M220 812h16 M272 812h12 M368 812h4 M204 813h8 M220 813h16 M272 813h12 M368 813h4 M204 814h8 M220 814h16 M272 814h12 M368 814h4 M204 815h8 M220 815h16 M272 815h12 M368 815h4 M200 816h12 M224 816h12 M276 816h4 M200 817h12 M224 817h12 M276 817h4 M200 818h12 M224 818h12 M276 818h4 M200 819h12 M224 819h12 M276 819h4 M208 820h4 M276 820h8 M208 821h4 M276 821h8 M208 822h4 M276 822h8 M208 823h4 M276 823h8 M200 824h8 M276 824h4 M368 824h4 M200 825h8 M276 825h4 M368 825h4 M200 826h8 M276 826h4 M368 826h4 M200 827h8 M276 827h4 M368 827h4 M204 828h4 M276 828h8 M368 828h4 M204 829h4 M276 829h8 M368 829h4 M204 830h4 M276 830h8 M368 830h4 M204 831h4 M276 831h8 M368 831h4 M204 832h8 M276 832h12 M204 833h8 M276 833h12 M204 834h8 M276 834h12 M204 835h8 M276 835h12 M204 836h8 M276 836h8 M204 837h8 M276 837h8 M204 838h8 M276 838h8 M204 839h8 M276 839h8 M204 840h8 M276 840h12 M204 841h8 M276 841h12 M204 842h8 M276 842h12 M204 843h8 M276 843h12 M208 844h8 M280 844h8 M208 845h8 M280 845h8 M208 846h8 M280 846h8 M208 847h8 M280 847h8 M208 848h4 M284 848h8 M208 849h4 M284 849h8 M208 850h4 M284 850h8 M208 851h4 M284 851h8 M208 852h4 M272 852h8 M288 852h8 M208 853h4 M272 853h8 M288 853h8 M208 854h4 M272 854h8 M288 854h8 M208 855h4 M272 855h8 M288 855h8 M204 856h4 M272 856h8 M288 856h8 M368 856h8 M204 857h4 M272 857h8 M288 857h8 M368 857h8 M204 858h4 M272 858h8 M288 858h8 M368 858h8 M204 859h4 M272 859h8 M288 859h8 M368 859h8 M272 860h12 M288 860h8 M368 860h8 M272 861h12 M288 861h8 M368 861h8 M272 862h12 M288 862h8 M368 862h8 M272 863h12 M288 863h8 M368 863h8 M196 864h8 M276 864h20 M368 864h4 M196 865h8 M276 865h20 M368 865h4 M196 866h8 M276 866h20 M368 866h4 M196 867h8 M276 867h20 M368 867h4 M196 868h8 M276 868h8 M368 868h4 M196 869h8 M276 869h8 M368 869h4 M196 870h8 M276 870h8 M368 870h4 M196 871h8 M276 871h8 M368 871h4 M192 872h4 M200 872h4 M208 872h8 M276 872h12 M192 873h4 M200 873h4 M208 873h8 M276 873h12 M192 874h4 M200 874h4 M208 874h8 M276 874h12 M192 875h4 M200 875h4 M208 875h8 M276 875h12 M196 876h4 M212 876h12 M232 876h4 M268 876h8 M368 876h4 M196 877h4 M212 877h12 M232 877h4 M268 877h8 M368 877h4 M196 878h4 M212 878h12 M232 878h4 M268 878h8 M368 878h4 M196 879h4 M212 879h12 M232 879h4 M268 879h8 M368 879h4 M192 880h8 M204 880h4 M212 880h4 M220 880h4 M236 880h4 M260 880h24 M360 880h8 M192 881h8 M204 881h4 M212 881h4 M220 881h4 M236 881h4 M260 881h24 M360 881h8 M192 882h8 M204 882h4 M212 882h4 M220 882h4 M236 882h4 M260 882h24 M360 882h8 M192 883h8 M204 883h4 M212 883h4 M220 883h4 M236 883h4 M260 883h24 M360 883h8 M196 884h8 M208 884h12 M232 884h16 M256 884h16 M276 884h8 M292 884h4 M304 884h4 M356 884h8 M196 885h8 M208 885h12 M232 885h16 M256 885h16 M276 885h8 M292 885h4 M304 885h4 M356 885h8 M196 886h8 M208 886h12 M232 886h16 M256 886h16 M276 886h8 M292 886h4 M304 886h4 M356 886h8 M196 887h8 M208 887h12 M232 887h16 M256 887h16 M276 887h8 M292 887h4 M304 887h4 M356 887h8 M216 888h12 M232 888h12 M248 888h16 M276 888h16 M308 888h4 M344 888h4 M352 888h12 M216 889h12 M232 889h12 M248 889h16 M276 889h16 M308 889h4 M344 889h4 M352 889h12 M216 890h12 M232 890h12 M248 890h16 M276 890h16 M308 890h4 M344 890h4 M352 890h12 M216 891h12 M232 891h12 M248 891h16 M276 891h16 M308 891h4 M344 891h4 M352 891h12 M224 892h4 M244 892h4 M288 892h12 M304 892h8 M320 892h4 M336 892h8 M348 892h12 M224 893h4 M244 893h4 M288 893h12 M304 893h8 M320 893h4 M336 893h8 M348 893h12 M224 894h4 M244 894h4 M288 894h12 M304 894h8 M320 894h4 M336 894h8 M348 894h12 M224 895h4 M244 895h4 M288 895h12 M304 895h8 M320 895h4 M336 895h8 M348 895h12 M288 896h4 M296 896h8 M308 896h16 M332 896h12 M288 897h4 M296 897h8 M308 897h16 M332 897h12 M288 898h4 M296 898h8 M308 898h16 M332 898h12 M288 899h4 M296 899h8 M308 899h16 M332 899h12 M292 900h12 M292 901h12 M292 902h12 M292 903h12" stroke="rgb(255,255,255)" stroke-width="1" fill="none"/><path d="M256 112h4 M256 113h4 M256 114h4 M256 115h4 M260 120h4 M260 121h4 M260 122h4 M260 123h4 M256 124h4 M256 125h4 M256 126h4 M256 127h4 M260 128h4 M260 129h4 M260 130h4 M260 131h4 M240 132h8 M260 132h4 M292 132h8 M240 133h8 M260 133h4 M292 133h8 M240 134h8 M260 134h4 M292 134h8 M240 135h8 M260 135h4 M292 135h8 M244 136h4 M268 136h4 M288 136h4 M300 136h4 M244 137h4 M268 137h4 M288 137h4 M300 137h4 M244 138h4 M268 138h4 M288 138h4 M300 138h4 M244 139h4 M268 139h4 M288 139h4 M300 139h4 M296 140h4 M296 141h4 M296 142h4 M296 143h4 M220 144h4 M220 145h4 M220 146h4 M220 147h4 M216 148h4 M228 148h4 M236 148h8 M272 148h4 M216 149h4 M228 149h4 M236 149h8 M272 149h4 M216 150h4 M228 150h4 M236 150h8 M272 150h4 M216 151h4 M228 151h4 M236 151h8 M272 151h4 M228 156h4 M228 157h4 M228 158h4 M228 159h4 M220 164h4 M232 164h8 M220 165h4 M232 165h8 M220 166h4 M232 166h8 M220 167h4 M232 167h8 M248 176h4 M272 176h4 M248 177h4 M272 177h4 M248 178h4 M272 178h4 M248 179h4 M272 179h4 M240 180h4 M248 180h4 M240 181h4 M248 181h4 M240 182h4 M248 182h4 M240 183h4 M248 183h4 M232 184h4 M232 185h4 M232 186h4 M232 187h4 M240 188h4 M260 188h4 M240 189h4 M260 189h4 M240 190h4 M260 190h4 M240 191h4 M260 191h4 M220 192h4 M220 193h4 M220 194h4 M220 195h4 M256 200h8 M256 201h8 M256 202h8 M256 203h8 M264 204h4 M264 205h4 M264 206h4 M264 207h4 M252 208h4 M260 208h4 M268 208h4 M252 209h4 M260 209h4 M268 209h4 M252 210h4 M260 210h4 M268 210h4 M252 211h4 M260 211h4 M268 211h4 M248 216h4 M264 216h4 M248 217h4 M264 217h4 M248 218h4 M264 218h4 M248 219h4 M264 219h4 M264 220h4 M264 221h4 M264 222h4 M264 223h4 M248 224h4 M264 224h4 M248 225h4 M264 225h4 M248 226h4 M264 226h4 M248 227h4 M264 227h4 M272 228h8 M272 229h8 M272 230h8 M272 231h8 M236 244h4 M236 245h4 M236 246h4 M236 247h4 M276 248h4 M276 249h4 M276 250h4 M276 251h4 M284 252h4 M284 253h4 M284 254h4 M284 255h4 M248 256h4 M288 256h4 M248 257h4 M288 257h4 M248 258h4 M288 258h4 M248 259h4 M288 259h4 M236 260h4 M280 260h8 M292 260h4 M236 261h4 M280 261h8 M292 261h4 M236 262h4 M280 262h8 M292 262h4 M236 263h4 M280 263h8 M292 263h4 M248 264h4 M256 264h4 M248 265h4 M256 265h4 M248 266h4 M256 266h4 M248 267h4 M256 267h4 M232 268h4 M232 269h4 M232 270h4 M232 271h4 M224 276h4 M224 277h4 M224 278h4 M224 279h4 M296 284h4 M296 285h4 M296 286h4 M296 287h4 M296 292h4 M304 292h4 M296 293h4 M304 293h4 M296 294h4 M304 294h4 M296 295h4 M304 295h4 M228 296h4 M228 297h4 M228 298h4 M228 299h4 M236 300h8 M236 301h8 M236 302h8 M236 303h8 M220 304h4 M300 304h8 M220 305h4 M300 305h8 M220 306h4 M300 306h8 M220 307h4 M300 307h8 M280 308h4 M280 309h4 M280 310h4 M280 311h4 M312 312h4 M312 313h4 M312 314h4 M312 315h4 M212 316h4 M220 316h4 M212 317h4 M220 317h4 M212 318h4 M220 318h4 M212 319h4 M220 319h4 M216 324h4 M216 325h4 M216 326h4 M216 327h4 M316 328h4 M316 329h4 M316 330h4 M316 331h4 M208 336h4 M216 336h4 M208 337h4 M216 337h4 M208 338h4 M216 338h4 M208 339h4 M216 339h4 M208 340h4 M224 340h4 M324 340h4 M208 341h4 M224 341h4 M324 341h4 M208 342h4 M224 342h4 M324 342h4 M208 343h4 M224 343h4 M324 343h4 M312 344h4 M312 345h4 M312 346h4 M312 347h4 M248 348h4 M260 348h4 M304 348h4 M324 348h4 M248 349h4 M260 349h4 M304 349h4 M324 349h4 M248 350h4 M260 350h4 M304 350h4 M324 350h4 M248 351h4 M260 351h4 M304 351h4 M324 351h4 M208 352h4 M248 352h4 M268 352h4 M292 352h4 M304 352h4 M208 353h4 M248 353h4 M268 353h4 M292 353h4 M304 353h4 M208 354h4 M248 354h4 M268 354h4 M292 354h4 M304 354h4 M208 355h4 M248 355h4 M268 355h4 M292 355h4 M304 355h4 M256 356h8 M256 357h8 M256 358h8 M256 359h8 M204 360h4 M280 360h4 M324 360h8 M204 361h4 M280 361h4 M324 361h8 M204 362h4 M280 362h4 M324 362h8 M204 363h4 M280 363h4 M324 363h8 M204 368h4 M332 368h4 M204 369h4 M332 369h4 M204 370h4 M332 370h4 M204 371h4 M332 371h4 M328 372h4 M348 372h4 M328 373h4 M348 373h4 M328 374h4 M348 374h4 M328 375h4 M348 375h4 M320 376h4 M320 377h4 M320 378h4 M320 379h4 M192 380h4 M236 380h4 M276 380h4 M292 380h4 M352 380h4 M360 380h4 M192 381h4 M236 381h4 M276 381h4 M292 381h4 M352 381h4 M360 381h4 M192 382h4 M236 382h4 M276 382h4 M292 382h4 M352 382h4 M360 382h4 M192 383h4 M236 383h4 M276 383h4 M292 383h4 M352 383h4 M360 383h4 M244 384h4 M260 384h4 M288 384h4 M244 385h4 M260 385h4 M288 385h4 M244 386h4 M260 386h4 M288 386h4 M244 387h4 M260 387h4 M288 387h4 M252 388h4 M356 388h4 M364 388h4 M252 389h4 M356 389h4 M364 389h4 M252 390h4 M356 390h4 M364 390h4 M252 391h4 M356 391h4 M364 391h4 M360 392h4 M360 393h4 M360 394h4 M360 395h4 M244 396h4 M372 396h4 M244 397h4 M372 397h4 M244 398h4 M372 398h4 M244 399h4 M372 399h4 M184 404h4 M184 405h4 M184 406h4 M184 407h4 M176 408h8 M236 408h4 M176 409h8 M236 409h4 M176 410h8 M236 410h4 M176 411h8 M236 411h4 M172 420h4 M172 421h4 M172 422h4 M172 423h4 M240 424h4 M256 424h4 M240 425h4 M256 425h4 M240 426h4 M256 426h4 M240 427h4 M256 427h4 M372 432h4 M372 433h4 M372 434h4 M372 435h4 M168 436h4 M168 437h4 M168 438h4 M168 439h4 M388 444h4 M388 445h4 M388 446h4 M388 447h4 M376 448h4 M388 448h4 M376 449h4 M388 449h4 M376 450h4 M388 450h4 M376 451h4 M388 451h4 M172 452h4 M172 453h4 M172 454h4 M172 455h4 M176 456h4 M176 457h4 M176 458h4 M176 459h4 M388 460h4 M388 461h4 M388 462h4 M388 463h4 M172 464h8 M388 464h4 M172 465h8 M388 465h4 M172 466h8 M388 466h4 M172 467h8 M388 467h4 M176 472h4 M176 473h4 M176 474h4 M176 475h4 M176 476h8 M376 476h4 M384 476h8 M176 477h8 M376 477h4 M384 477h8 M176 478h8 M376 478h4 M384 478h8 M176 479h8 M376 479h4 M384 479h8 M384 480h4 M384 481h4 M384 482h4 M384 483h4 M380 492h4 M380 493h4 M380 494h4 M380 495h4 M384 496h4 M384 497h4 M384 498h4 M384 499h4 M384 500h4 M384 501h4 M384 502h4 M384 503h4 M180 504h8 M208 504h4 M376 504h4 M180 505h8 M208 505h4 M376 505h4 M180 506h8 M208 506h4 M376 506h4 M180 507h8 M208 507h4 M376 507h4 M280 508h4 M376 508h4 M428 508h4 M280 509h4 M376 509h4 M428 509h4 M280 510h4 M376 510h4 M428 510h4 M280 511h4 M376 511h4 M428 511h4 M216 512h4 M292 512h8 M388 512h4 M404 512h8 M428 512h4 M216 513h4 M292 513h8 M388 513h4 M404 513h8 M428 513h4 M216 514h4 M292 514h8 M388 514h4 M404 514h8 M428 514h4 M216 515h4 M292 515h8 M388 515h4 M404 515h8 M428 515h4 M160 516h8 M184 516h4 M216 516h4 M224 516h4 M368 516h4 M380 516h4 M432 516h4 M160 517h8 M184 517h4 M216 517h4 M224 517h4 M368 517h4 M380 517h4 M432 517h4 M160 518h8 M184 518h4 M216 518h4 M224 518h4 M368 518h4 M380 518h4 M432 518h4 M160 519h8 M184 519h4 M216 519h4 M224 519h4 M368 519h4 M380 519h4 M432 519h4 M160 520h4 M176 520h4 M208 520h4 M292 520h4 M376 520h8 M160 521h4 M176 521h4 M208 521h4 M292 521h4 M376 521h8 M160 522h4 M176 522h4 M208 522h4 M292 522h4 M376 522h8 M160 523h4 M176 523h4 M208 523h4 M292 523h4 M376 523h8 M184 524h4 M428 524h4 M184 525h4 M428 525h4 M184 526h4 M428 526h4 M184 527h4 M428 527h4 M152 532h4 M184 532h4 M372 532h4 M428 532h4 M152 533h4 M184 533h4 M372 533h4 M428 533h4 M152 534h4 M184 534h4 M372 534h4 M428 534h4 M152 535h4 M184 535h4 M372 535h4 M428 535h4 M148 536h4 M148 537h4 M148 538h4 M148 539h4 M132 540h8 M252 540h4 M396 540h4 M132 541h8 M252 541h4 M396 541h4 M132 542h8 M252 542h4 M396 542h4 M132 543h8 M252 543h4 M396 543h4 M136 544h4 M348 544h4 M356 544h4 M404 544h4 M136 545h4 M348 545h4 M356 545h4 M404 545h4 M136 546h4 M348 546h4 M356 546h4 M404 546h4 M136 547h4 M348 547h4 M356 547h4 M404 547h4 M136 548h4 M188 548h4 M352 548h4 M384 548h4 M392 548h4 M136 549h4 M188 549h4 M352 549h4 M384 549h4 M392 549h4 M136 550h4 M188 550h4 M352 550h4 M384 550h4 M392 550h4 M136 551h4 M188 551h4 M352 551h4 M384 551h4 M392 551h4 M132 552h4 M348 552h4 M360 552h4 M388 552h4 M132 553h4 M348 553h4 M360 553h4 M388 553h4 M132 554h4 M348 554h4 M360 554h4 M388 554h4 M132 555h4 M348 555h4 M360 555h4 M388 555h4 M128 556h4 M380 556h4 M388 556h4 M128 557h4 M380 557h4 M388 557h4 M128 558h4 M380 558h4 M388 558h4 M128 559h4 M380 559h4 M388 559h4 M132 560h4 M324 560h4 M132 561h4 M324 561h4 M132 562h4 M324 562h4 M132 563h4 M324 563h4 M320 564h4 M420 564h4 M320 565h4 M420 565h4 M320 566h4 M420 566h4 M320 567h4 M420 567h4 M328 568h4 M328 569h4 M328 570h4 M328 571h4 M124 572h4 M192 572h4 M304 572h4 M320 572h4 M124 573h4 M192 573h4 M304 573h4 M320 573h4 M124 574h4 M192 574h4 M304 574h4 M320 574h4 M124 575h4 M192 575h4 M304 575h4 M320 575h4 M120 576h8 M180 576h4 M188 576h4 M196 576h4 M224 576h4 M120 577h8 M180 577h4 M188 577h4 M196 577h4 M224 577h4 M120 578h8 M180 578h4 M188 578h4 M196 578h4 M224 578h4 M120 579h8 M180 579h4 M188 579h4 M196 579h4 M224 579h4 M160 580h4 M176 580h8 M224 580h4 M240 580h4 M300 580h4 M424 580h8 M160 581h4 M176 581h8 M224 581h4 M240 581h4 M300 581h4 M424 581h8 M160 582h4 M176 582h8 M224 582h4 M240 582h4 M300 582h4 M424 582h8 M160 583h4 M176 583h8 M224 583h4 M240 583h4 M300 583h4 M424 583h8 M156 584h4 M168 584h4 M216 584h4 M244 584h4 M260 584h4 M316 584h4 M404 584h4 M424 584h8 M156 585h4 M168 585h4 M216 585h4 M244 585h4 M260 585h4 M316 585h4 M404 585h4 M424 585h8 M156 586h4 M168 586h4 M216 586h4 M244 586h4 M260 586h4 M316 586h4 M404 586h4 M424 586h8 M156 587h4 M168 587h4 M216 587h4 M244 587h4 M260 587h4 M316 587h4 M404 587h4 M424 587h8 M160 588h4 M168 588h4 M204 588h4 M396 588h8 M424 588h4 M160 589h4 M168 589h4 M204 589h4 M396 589h8 M424 589h4 M160 590h4 M168 590h4 M204 590h4 M396 590h8 M424 590h4 M160 591h4 M168 591h4 M204 591h4 M396 591h8 M424 591h4 M132 592h4 M140 592h4 M244 592h8 M336 592h4 M388 592h4 M132 593h4 M140 593h4 M244 593h8 M336 593h4 M388 593h4 M132 594h4 M140 594h4 M244 594h8 M336 594h4 M388 594h4 M132 595h4 M140 595h4 M244 595h8 M336 595h4 M388 595h4 M240 596h4 M256 596h4 M296 596h8 M380 596h4 M240 597h4 M256 597h4 M296 597h8 M380 597h4 M240 598h4 M256 598h4 M296 598h8 M380 598h4 M240 599h4 M256 599h4 M296 599h8 M380 599h4 M196 600h4 M392 600h4 M196 601h4 M392 601h4 M196 602h4 M392 602h4 M196 603h4 M392 603h4 M140 604h4 M180 604h4 M356 604h4 M380 604h4 M140 605h4 M180 605h4 M356 605h4 M380 605h4 M140 606h4 M180 606h4 M356 606h4 M380 606h4 M140 607h4 M180 607h4 M356 607h4 M380 607h4 M132 608h4 M228 608h4 M260 608h4 M132 609h4 M228 609h4 M260 609h4 M132 610h4 M228 610h4 M260 610h4 M132 611h4 M228 611h4 M260 611h4 M388 612h4 M388 613h4 M388 614h4 M388 615h4 M140 616h4 M268 616h4 M404 616h8 M140 617h4 M268 617h4 M404 617h8 M140 618h4 M268 618h4 M404 618h8 M140 619h4 M268 619h4 M404 619h8 M304 620h4 M304 621h4 M304 622h4 M304 623h4 M196 624h4 M296 624h4 M396 624h4 M196 625h4 M296 625h4 M396 625h4 M196 626h4 M296 626h4 M396 626h4 M196 627h4 M296 627h4 M396 627h4 M204 628h4 M212 628h8 M276 628h8 M288 628h4 M304 628h4 M372 628h4 M204 629h4 M212 629h8 M276 629h8 M288 629h4 M304 629h4 M372 629h4 M204 630h4 M212 630h8 M276 630h8 M288 630h4 M304 630h4 M372 630h4 M204 631h4 M212 631h8 M276 631h8 M288 631h4 M304 631h4 M372 631h4 M216 632h4 M364 632h4 M388 632h4 M416 632h12 M216 633h4 M364 633h4 M388 633h4 M416 633h12 M216 634h4 M364 634h4 M388 634h4 M416 634h12 M216 635h4 M364 635h4 M388 635h4 M416 635h12 M156 636h4 M176 636h4 M232 636h4 M252 636h4 M352 636h8 M368 636h8 M420 636h4 M156 637h4 M176 637h4 M232 637h4 M252 637h4 M352 637h8 M368 637h8 M420 637h4 M156 638h4 M176 638h4 M232 638h4 M252 638h4 M352 638h8 M368 638h8 M420 638h4 M156 639h4 M176 639h4 M232 639h4 M252 639h4 M352 639h8 M368 639h8 M420 639h4 M188 640h4 M228 640h4 M236 640h4 M252 640h4 M428 640h4 M188 641h4 M228 641h4 M236 641h4 M252 641h4 M428 641h4 M188 642h4 M228 642h4 M236 642h4 M252 642h4 M428 642h4 M188 643h4 M228 643h4 M236 643h4 M252 643h4 M428 643h4 M148 644h4 M192 644h8 M148 645h4 M192 645h8 M148 646h4 M192 646h8 M148 647h4 M192 647h8 M128 648h4 M136 648h4 M328 648h12 M128 649h4 M136 649h4 M328 649h12 M128 650h4 M136 650h4 M328 650h12 M128 651h4 M136 651h4 M328 651h12 M120 652h4 M332 652h4 M456 652h12 M472 652h4 M484 652h4 M120 653h4 M332 653h4 M456 653h12 M472 653h4 M484 653h4 M120 654h4 M332 654h4 M456 654h12 M472 654h4 M484 654h4 M120 655h4 M332 655h4 M456 655h12 M472 655h4 M484 655h4 M128 656h4 M188 656h4 M128 657h4 M188 657h4 M128 658h4 M188 658h4 M128 659h4 M188 659h4 M380 660h4 M472 660h4 M484 660h4 M380 661h4 M472 661h4 M484 661h4 M380 662h4 M472 662h4 M484 662h4 M380 663h4 M472 663h4 M484 663h4 M124 664h4 M188 664h4 M472 664h4 M480 664h8 M124 665h4 M188 665h4 M472 665h4 M480 665h8 M124 666h4 M188 666h4 M472 666h4 M480 666h8 M124 667h4 M188 667h4 M472 667h4 M480 667h8 M124 668h4 M124 669h4 M124 670h4 M124 671h4 M108 672h4 M184 672h4 M392 672h8 M492 672h4 M108 673h4 M184 673h4 M392 673h8 M492 673h4 M108 674h4 M184 674h4 M392 674h8 M492 674h4 M108 675h4 M184 675h4 M392 675h8 M492 675h4 M164 676h4 M176 676h4 M184 676h4 M376 676h4 M412 676h8 M428 676h4 M164 677h4 M176 677h4 M184 677h4 M376 677h4 M412 677h8 M428 677h4 M164 678h4 M176 678h4 M184 678h4 M376 678h4 M412 678h8 M428 678h4 M164 679h4 M176 679h4 M184 679h4 M376 679h4 M412 679h8 M428 679h4 M120 680h4 M128 680h4 M152 680h4 M160 680h4 M424 680h4 M444 680h4 M464 680h4 M120 681h4 M128 681h4 M152 681h4 M160 681h4 M424 681h4 M444 681h4 M464 681h4 M120 682h4 M128 682h4 M152 682h4 M160 682h4 M424 682h4 M444 682h4 M464 682h4 M120 683h4 M128 683h4 M152 683h4 M160 683h4 M424 683h4 M444 683h4 M464 683h4 M148 684h8 M172 684h4 M440 684h4 M148 685h8 M172 685h4 M440 685h4 M148 686h8 M172 686h4 M440 686h4 M148 687h8 M172 687h4 M440 687h4 M452 688h4 M464 688h4 M452 689h4 M464 689h4 M452 690h4 M464 690h4 M452 691h4 M464 691h4 M196 692h4 M376 692h8 M464 692h4 M196 693h4 M376 693h8 M464 693h4 M196 694h4 M376 694h8 M464 694h4 M196 695h4 M376 695h8 M464 695h4 M192 696h4 M192 697h4 M192 698h4 M192 699h4 M192 704h4 M192 705h4 M192 706h4 M192 707h4 M192 708h4 M376 708h4 M192 709h4 M376 709h4 M192 710h4 M376 710h4 M192 711h4 M376 711h4 M196 712h4 M196 713h4 M196 714h4 M196 715h4 M384 716h4 M384 717h4 M384 718h4 M384 719h4 M376 720h8 M376 721h8 M376 722h8 M376 723h8 M200 724h4 M384 724h4 M200 725h4 M384 725h4 M200 726h4 M384 726h4 M200 727h4 M384 727h4 M204 728h4 M204 729h4 M204 730h4 M204 731h4 M204 732h4 M376 732h4 M204 733h4 M376 733h4 M204 734h4 M376 734h4 M204 735h4 M376 735h4 M372 736h8 M372 737h8 M372 738h8 M372 739h8 M216 740h8 M216 741h8 M216 742h8 M216 743h8 M224 744h4 M224 745h4 M224 746h4 M224 747h4 M196 748h4 M228 748h4 M276 748h4 M364 748h4 M196 749h4 M228 749h4 M276 749h4 M364 749h4 M196 750h4 M228 750h4 M276 750h4 M364 750h4 M196 751h4 M228 751h4 M276 751h4 M364 751h4 M272 752h4 M372 752h4 M272 753h4 M372 753h4 M272 754h4 M372 754h4 M272 755h4 M372 755h4 M368 756h4 M368 757h4 M368 758h4 M368 759h4 M196 760h4 M196 761h4 M196 762h4 M196 763h4 M192 764h4 M192 765h4 M192 766h4 M192 767h4 M192 768h4 M192 769h4 M192 770h4 M192 771h4 M200 772h4 M260 772h8 M200 773h4 M260 773h8 M200 774h4 M260 774h8 M200 775h4 M260 775h8 M204 776h4 M264 776h4 M364 776h4 M372 776h4 M204 777h4 M264 777h4 M364 777h4 M372 777h4 M204 778h4 M264 778h4 M364 778h4 M372 778h4 M204 779h4 M264 779h4 M364 779h4 M372 779h4 M208 780h4 M208 781h4 M208 782h4 M208 783h4 M372 784h4 M372 785h4 M372 786h4 M372 787h4 M264 788h4 M264 789h4 M264 790h4 M264 791h4 M264 796h4 M264 797h4 M264 798h4 M264 799h4 M204 800h4 M204 801h4 M204 802h4 M204 803h4 M372 804h4 M372 805h4 M372 806h4 M372 807h4 M372 808h4 M372 809h4 M372 810h4 M372 811h4 M200 812h4 M200 813h4 M200 814h4 M200 815h4 M368 816h4 M368 817h4 M368 818h4 M368 819h4 M204 820h4 M204 821h4 M204 822h4 M204 823h4 M208 824h4 M280 824h4 M208 825h4 M280 825h4 M208 826h4 M280 826h4 M208 827h4 M280 827h4 M208 828h4 M208 829h4 M208 830h4 M208 831h4 M284 836h4 M284 837h4 M284 838h4 M284 839h4 M280 848h4 M280 849h4 M280 850h4 M280 851h4 M200 856h4 M208 856h4 M200 857h4 M208 857h4 M200 858h4 M208 858h4 M200 859h4 M208 859h4 M200 860h8 M200 861h8 M200 862h8 M200 863h8 M272 864h4 M272 865h4 M272 866h4 M272 867h4 M284 868h4 M284 869h4 M284 870h4 M284 871h4 M196 872h4 M368 872h4 M196 873h4 M368 873h4 M196 874h4 M368 874h4 M196 875h4 M368 875h4 M192 876h4 M208 876h4 M276 876h4 M364 876h4 M192 877h4 M208 877h4 M276 877h4 M364 877h4 M192 878h4 M208 878h4 M276 878h4 M364 878h4 M192 879h4 M208 879h4 M276 879h4 M364 879h4 M208 880h4 M216 880h4 M208 881h4 M216 881h4 M208 882h4 M216 882h4 M208 883h4 M216 883h4 M220 884h4 M252 884h4 M288 884h4 M308 884h4 M352 884h4 M220 885h4 M252 885h4 M288 885h4 M308 885h4 M352 885h4 M220 886h4 M252 886h4 M288 886h4 M308 886h4 M352 886h4 M220 887h4 M252 887h4 M288 887h4 M308 887h4 M352 887h4 M244 888h4 M292 888h4 M304 888h4 M348 888h4 M244 889h4 M292 889h4 M304 889h4 M348 889h4 M244 890h4 M292 890h4 M304 890h4 M348 890h4 M244 891h4 M292 891h4 M304 891h4 M348 891h4 M220 892h4 M236 892h4 M280 892h8 M312 892h4 M332 892h4 M344 892h4 M220 893h4 M236 893h4 M280 893h8 M312 893h4 M332 893h4 M344 893h4 M220 894h4 M236 894h4 M280 894h8 M312 894h4 M332 894h4 M344 894h4 M220 895h4 M236 895h4 M280 895h8 M312 895h4 M332 895h4 M344 895h4 M292 896h4 M324 896h4 M292 897h4 M324 897h4 M292 898h4 M324 898h4 M292 899h4 M324 899h4" stroke="rgb(0,0,0)" stroke-width="1" fill="none"/></svg>